<?xml version="1.0" encoding="utf-8"?>
<!-- Designed by Vexels.com - 2020 All Rights Reserved - https://vexels.com/terms-and-conditions/  -->
<svg version="1.1" id="Capa_1" xmlns="http://www.w3.org/2000/svg" xmlns:xlink="http://www.w3.org/1999/xlink" x="0px" y="0px"
	 viewBox="0 0 1200 1200" enable-background="new 0 0 1200 1200" xml:space="preserve">
<g>
	<path fill="#FFFFFF" d="M152.531,160.328v9.486h462.628c1.564,0,3.047,0.321,4.43,0.842c34.207-11.415,70.74-17.69,108.734-17.69
		c32.981,0,64.852,4.756,95.07,13.452v-6.09c0-46.902-38.17-85.061-85.093-85.061H237.6
		C190.693,75.267,152.531,113.426,152.531,160.328z"/>
	<path fill="#FFFFFF" d="M823.393,1039.665V935.703H152.531v103.961c0,46.905,38.162,85.068,85.069,85.068h500.7
		C785.222,1124.733,823.393,1086.57,823.393,1039.665z M567.529,1040.249H408.387c-6.974,0-12.633-5.655-12.633-12.633
		c0-6.978,5.659-12.634,12.633-12.634h159.142c6.974,0,12.633,5.655,12.633,12.634
		C580.162,1034.594,574.503,1040.249,567.529,1040.249z"/>
	<path fill="#FFFFFF" d="M383.911,497.376c0-130.215,72.65-243.764,179.537-302.294H152.531v715.355h670.862v-71.88v-10.224
		c-30.219,8.696-62.089,13.452-95.07,13.452C538.413,841.784,383.911,687.281,383.911,497.376z"/>
	<path fill="#FFC5C5" d="M835.534,196.813c-2.538-0.101-4.877-0.93-6.815-2.312c-31.593-10.498-65.322-16.268-100.397-16.268
		c-175.977,0-319.146,143.165-319.146,319.143c0,175.977,143.169,319.142,319.146,319.142
		c175.979,0,319.148-143.164,319.148-319.142C1047.47,358.997,958.923,240.957,835.534,196.813z M863.004,530.061L737.255,655.805
		c-2.468,2.468-5.7,3.701-8.933,3.701c-3.231,0-6.464-1.233-8.931-3.701L593.643,530.065c-36.807-36.806-36.807-96.686,0-133.488
		c36.797-36.785,96.681-36.801,133.479,0l1.2,1.197l1.186-1.192c36.815-36.806,96.698-36.802,133.496-0.005
		C899.802,433.379,899.802,493.258,863.004,530.061z"/>
	<path fill="#FF8A93" d="M719.391,424.573l-10.133-10.133c-13.471-13.472-31.18-20.208-48.872-20.208
		c-17.707,0-35.399,6.736-48.879,20.208c-13.053,13.057-20.251,30.416-20.251,48.88c0,18.461,7.198,35.819,20.251,48.876
		l116.815,116.813L845.14,512.192c26.945-26.948,26.945-70.799,0-97.752c-26.96-26.944-70.798-26.944-97.759,0l-10.118,10.129
		C732.526,429.307,724.128,429.315,719.391,424.573z"/>
	<path fill="#565656" d="M729.508,396.581l-1.186,1.192l-1.2-1.197c-36.798-36.801-96.682-36.785-133.479,0
		c-36.807,36.802-36.807,96.682,0,133.488l125.748,125.741c2.467,2.468,5.7,3.701,8.931,3.701c3.233,0,6.465-1.233,8.933-3.701
		l125.748-125.744c36.798-36.802,36.798-96.682,0-133.484C826.206,359.779,766.323,359.775,729.508,396.581z M845.14,414.441
		c26.945,26.953,26.945,70.803,0,97.752L728.322,629.009L611.507,512.196c-13.053-13.057-20.251-30.415-20.251-48.876
		c0-18.464,7.198-35.823,20.251-48.88c13.48-13.472,31.172-20.208,48.879-20.208c17.692,0,35.4,6.736,48.872,20.208l10.133,10.133
		c4.737,4.742,13.135,4.734,17.872-0.004l10.118-10.129C774.341,387.496,818.179,387.496,845.14,414.441z"/>
	<path fill="#565656" d="M567.529,1014.982H408.387c-6.974,0-12.633,5.655-12.633,12.634c0,6.978,5.659,12.633,12.633,12.633
		h159.142c6.974,0,12.633-5.655,12.633-12.633C580.162,1020.637,574.503,1014.982,567.529,1014.982z"/>
	<path fill="#565656" d="M1072.736,497.376c0-147.59-93.341-273.754-224.075-322.671v-14.377C848.661,99.493,799.156,50,738.3,50
		H237.6c-60.839,0-110.336,49.493-110.336,110.328v22.12V923.07v116.595c0,60.838,49.497,110.335,110.336,110.335h500.7
		c60.856,0,110.361-49.497,110.361-110.335V923.07v-84.513v-16.845c0-0.549-0.094-1.072-0.162-1.602
		C979.319,771.238,1072.736,645.026,1072.736,497.376z M237.6,1124.733c-46.908,0-85.069-38.163-85.069-85.068V935.703h670.862
		v103.961c0,46.905-38.17,85.068-85.093,85.068H237.6z M738.3,75.267c46.922,0,85.093,38.159,85.093,85.061v6.09
		c-30.219-8.696-62.089-13.452-95.07-13.452c-37.994,0-74.528,6.276-108.734,17.69c-1.382-0.52-2.865-0.842-4.43-0.842H152.531
		v-9.486c0-46.902,38.162-85.061,85.069-85.061H738.3z M823.393,838.556v71.88H152.531V195.082h410.917
		c-106.886,58.53-179.537,172.079-179.537,302.294c0,189.906,154.502,344.409,344.412,344.409c32.981,0,64.852-4.756,95.07-13.452
		V838.556z M728.322,816.517c-175.977,0-319.146-143.164-319.146-319.142c0-175.978,143.169-319.143,319.146-319.143
		c35.074,0,68.804,5.77,100.397,16.268c1.938,1.382,4.277,2.21,6.815,2.312c123.39,44.144,211.936,162.184,211.936,300.563
		C1047.47,673.353,904.301,816.517,728.322,816.517z"/>
</g>
</svg>
